<?xml version="1.0" encoding="utf-8"?>
<svg viewBox="0 0 500 500" xmlns="http://www.w3.org/2000/svg">
  <ellipse class="cls-1" cx="239.637" cy="390.287" rx="140.263" ry="21.837" style="fill: rgb(255, 193, 235);"/>
  <rect x="173.205" y="357.507" width="5.766" height="45.764" rx="4.02" transform="matrix(0.417279, -0.908779, 0.9059, 0.423549, -241.763599, 355.713476)" style=""/>
  <path class="cls-2" d="M 156.744 333.171 L 175.576 338.172 L 201.013 350.068 L 196.671 359.529 C 195.842 361.329 193.725 362.113 191.939 361.28 L 158.454 345.628 L 156.744 333.171 Z" style="fill: rgb(255, 255, 255);"/>
  <path d="M 193.43 362.604 C 192.771 362.604 192.12 362.46 191.522 362.18 L 157.547 346.303 L 155.565 331.801 L 176.002 337.247 L 202.331 349.603 L 197.568 359.974 C 196.811 361.586 195.198 362.612 193.43 362.604 Z M 159.365 344.947 L 192.355 360.374 C 193.651 360.989 195.194 360.418 195.789 359.104 L 199.719 350.548 L 175.238 339.102 L 157.929 334.506 L 159.365 344.947 Z" style=""/>
  <path d="M 161.1 352.863 L 139.682 342.862 C 138.042 342.095 137.328 340.132 138.087 338.476 C 141.207 331.684 149.194 328.73 155.927 331.875 C 162.66 335.024 165.589 343.084 162.467 349.877 L 161.1 352.863 Z" style=""/>
  <path d="M 329.674 142.023 L 318.688 142.698 C 308.235 143.339 299.244 135.31 298.607 124.761 L 297.988 114.455 C 297.423 105.077 304.503 97.015 313.796 96.452 L 322.36 95.927 C 335.262 95.147 346.351 105.061 347.138 118.08 L 347.365 121.88 C 347.992 132.373 340.071 141.39 329.674 142.023 Z" style=""/>
  <path d="M 142.086 391.608 C 141.598 391.615 141.177 391.263 141.094 390.778 L 114.518 236.754 L 73.982 390.698 C 73.763 391.435 72.834 391.657 72.311 391.098 C 72.086 390.857 71.993 390.521 72.063 390.198 L 114.914 227.433 L 143.061 390.453 C 143.155 390.992 142.802 391.506 142.269 391.608 C 142.208 391.613 142.147 391.613 142.086 391.608 Z" style=""/>
  <rect x="91.414" y="218.173" width="209.397" height="13.922" rx="8.79" style=""/>
  <rect class="cls-2" x="237.663" y="73.14" width="54.323" height="18.893" rx="18.89" style="fill: rgb(255, 255, 255);"/>
  <path d="M 282.63 93.027 L 247.024 93.027 C 239.058 93.203 233.889 84.61 237.722 77.56 C 239.579 74.144 243.164 72.054 247.024 72.14 L 282.63 72.14 C 290.598 71.964 295.766 80.557 291.934 87.608 C 290.077 91.024 286.49 93.112 282.63 93.027 Z M 247.024 74.14 C 240.584 73.982 236.389 80.919 239.473 86.627 C 240.975 89.406 243.89 91.104 247.024 91.027 L 282.63 91.027 C 289.072 91.186 293.267 84.247 290.183 78.54 C 288.681 75.762 285.766 74.063 282.63 74.14 L 247.024 74.14 Z" style=""/>
  <path class="cls-3" d="M 253.121 87.137 L 250.583 85.786 C 250.506 85.746 250.416 85.746 250.34 85.786 L 247.803 87.137 C 247.622 87.228 247.412 87.087 247.423 86.884 C 247.424 86.874 247.424 86.866 247.427 86.857 L 247.922 84.006 C 247.934 83.92 247.904 83.832 247.843 83.771 L 245.792 81.771 C 245.648 81.632 245.707 81.389 245.898 81.334 C 245.91 81.33 245.923 81.328 245.934 81.326 L 248.774 80.906 C 248.858 80.895 248.931 80.843 248.967 80.766 L 250.241 78.17 C 250.326 77.99 250.573 77.969 250.685 78.134 C 250.694 78.145 250.701 78.157 250.707 78.17 L 251.976 80.766 C 252.014 80.843 252.089 80.895 252.173 80.906 L 255.009 81.326 C 255.205 81.353 255.299 81.585 255.177 81.743 C 255.17 81.752 255.161 81.762 255.152 81.771 L 253.101 83.771 C 253.04 83.832 253.012 83.92 253.026 84.006 L 253.522 86.857 C 253.566 87.056 253.382 87.229 253.189 87.169 C 253.164 87.162 253.142 87.151 253.121 87.137 Z" style="fill: rgb(255, 187, 69);"/>
  <path class="cls-3" d="M 267.487 87.137 L 264.95 85.786 C 264.874 85.746 264.782 85.746 264.706 85.786 L 262.169 87.137 C 261.99 87.232 261.776 87.097 261.783 86.893 C 261.784 86.881 261.786 86.869 261.788 86.857 L 262.283 84.006 C 262.299 83.92 262.271 83.831 262.209 83.771 L 260.157 81.771 C 260.015 81.632 260.073 81.389 260.264 81.334 C 260.277 81.33 260.288 81.328 260.301 81.326 L 263.14 80.906 C 263.224 80.895 263.297 80.843 263.333 80.766 L 264.602 78.17 C 264.692 77.988 264.944 77.971 265.056 78.141 C 265.063 78.151 265.068 78.161 265.074 78.17 L 266.342 80.766 C 266.378 80.843 266.451 80.895 266.535 80.906 L 269.375 81.326 C 269.571 81.353 269.665 81.585 269.543 81.743 C 269.536 81.752 269.528 81.762 269.518 81.771 L 267.467 83.771 C 267.405 83.831 267.377 83.92 267.392 84.006 L 267.888 86.857 C 267.933 87.056 267.749 87.229 267.554 87.169 C 267.531 87.162 267.508 87.151 267.487 87.137 Z" style="fill: rgb(255, 187, 69);"/>
  <path class="cls-3" d="M 281.853 87.137 L 279.316 85.786 C 279.24 85.746 279.148 85.746 279.072 85.786 L 276.535 87.137 C 276.356 87.232 276.142 87.097 276.15 86.893 C 276.15 86.881 276.152 86.869 276.154 86.857 L 276.65 84.006 C 276.664 83.92 276.636 83.832 276.575 83.771 L 274.523 81.771 C 274.381 81.632 274.44 81.389 274.631 81.334 C 274.643 81.33 274.654 81.328 274.667 81.326 L 277.501 80.906 C 277.587 80.894 277.66 80.843 277.7 80.766 L 278.968 78.17 C 279.054 77.99 279.3 77.969 279.414 78.134 C 279.421 78.145 279.428 78.157 279.435 78.17 L 280.703 80.766 C 280.743 80.843 280.816 80.894 280.902 80.906 L 283.74 81.326 C 283.937 81.353 284.031 81.585 283.91 81.743 C 283.902 81.752 283.894 81.762 283.884 81.771 L 281.828 83.771 C 281.767 83.832 281.739 83.92 281.753 84.006 L 282.249 86.857 C 282.291 87.056 282.104 87.227 281.911 87.164 C 281.891 87.157 281.871 87.149 281.853 87.137 Z" style="fill: rgb(255, 187, 69);"/>
  <rect x="122.09" y="101.883" width="145.168" height="97.877" rx="19.22" style=""/>
  <rect class="cls-2" x="131.699" y="110.329" width="125.951" height="82.955" rx="14.65" style="fill: rgb(255, 255, 255);"/>
  <rect class="cls-4" x="166.754" y="124.19" width="41.795" height="57.832" rx="10.26" style="fill: rgb(109, 200, 194);"/>
  <rect class="cls-4" x="142.146" y="122.62" width="15.416" height="15.557" rx="4.29" style="fill: rgb(109, 200, 194);"/>
  <rect class="cls-1" x="142.146" y="145.494" width="15.416" height="15.557" rx="5.12" style="fill: rgb(255, 193, 235);"/>
  <rect class="cls-3" x="142.146" y="168.361" width="15.416" height="15.557" rx="5.18" style="fill: rgb(255, 187, 69);"/>
  <path d="M 249.84 126.321 L 216.757 126.321 C 215.993 126.321 215.517 125.488 215.898 124.822 C 216.075 124.511 216.402 124.321 216.757 124.321 L 249.84 124.321 C 250.602 124.321 251.08 125.154 250.698 125.821 C 250.521 126.13 250.194 126.321 249.84 126.321 Z" style=""/>
  <path d="M 249.84 135.577 L 216.757 135.577 C 215.993 135.577 215.517 134.744 215.898 134.078 C 216.075 133.768 216.402 133.577 216.757 133.577 L 249.84 133.577 C 250.602 133.577 251.08 134.41 250.698 135.077 C 250.521 135.386 250.194 135.577 249.84 135.577 Z" style=""/>
  <path d="M 239.567 144.788 L 216.771 144.788 C 216.008 144.788 215.531 143.955 215.912 143.288 C 216.09 142.978 216.417 142.788 216.771 142.788 L 239.567 142.788 C 240.329 142.788 240.806 143.621 240.425 144.288 C 240.248 144.598 239.921 144.788 239.567 144.788 Z" style=""/>
  <rect class="cls-1" x="215.8" y="151.749" width="22.577" height="8.871" rx="8.87" style="fill: rgb(255, 193, 235);"/>
  <circle class="cls-5" cx="496.46" cy="365.22" r="8.33" transform="matrix(0.495557, 0, 0, 0.50006, 1.530443, -26.442061)" style="fill: rgb(251, 109, 109);"/>
  <polygon points="195.982 218.173 161.452 218.173 175.59 199.76 211.538 199.76 195.982 218.173" style=""/>
  <path d="M 345.299 282.675 C 345.217 282.675 345.135 282.665 345.056 282.645 C 344.525 282.51 344.203 281.966 344.338 281.43 L 357.381 229.424 C 357.571 228.677 358.492 228.419 359.037 228.959 C 359.291 229.21 359.391 229.577 359.304 229.924 L 346.261 281.929 C 346.145 282.37 345.75 282.676 345.299 282.675 Z" style=""/>
  <path d="M 273.666 389.423 C 273.622 389.427 273.577 389.427 273.533 389.423 C 272.989 389.35 272.606 388.846 272.68 388.297 L 286.025 288.881 C 286.127 288.111 287.016 287.739 287.626 288.213 C 287.909 288.433 288.054 288.789 288.007 289.145 L 274.647 388.557 C 274.581 389.052 274.162 389.422 273.666 389.423 Z" style=""/>
  <rect class="cls-6" x="337.117" y="214.289" width="59.786" height="21.636" rx="13.99" transform="matrix(0.219481, -0.975617, 0.97476, 0.223291, 65.397912, 508.381691)" style="fill: rgb(199, 184, 248);"/>
  <path d="M 345.998 389.423 C 345.5 389.427 345.076 389.06 345.007 388.563 L 331.076 289.141 C 330.97 288.371 331.729 287.773 332.443 288.065 C 332.774 288.2 333.009 288.503 333.059 288.861 L 346.984 388.283 C 347.061 388.83 346.683 389.335 346.141 389.412 C 346.093 389.421 346.045 389.425 345.998 389.423 Z" style=""/>
  <path d="M 341.384 356.469 L 278.086 356.469 C 277.324 356.469 276.846 355.636 277.228 354.968 C 277.405 354.659 277.732 354.469 278.086 354.469 L 341.384 354.469 C 342.147 354.469 342.624 355.302 342.243 355.969 C 342.065 356.278 341.738 356.469 341.384 356.469 Z" style=""/>
  <rect class="cls-6" x="273.666" y="265.538" width="73.689" height="23.462" rx="13.82" style="fill: rgb(199, 184, 248);"/>
  <circle cx="701.53" cy="250.55" r="29.65" transform="matrix(0.495557, 0, 0, 0.50006, 1.530443, -26.442061)" style=""/>
  <circle cx="755.97" cy="223.78" r="39.8" transform="matrix(0.495557, 0, 0, 0.50006, 1.530443, -26.442061)" style=""/>
  <path class="cls-2" d="M 339.581 126.911 C 339.581 123.321 336.696 120.411 333.138 120.411 C 332.836 120.414 332.535 120.437 332.236 120.481 L 331.002 103.419 L 306.953 106.024 C 301.838 106.574 297.958 110.929 297.958 116.12 L 297.958 118.865 C 297.98 122.047 297.103 125.169 295.431 127.867 L 295.387 127.931 L 295.387 127.956 C 294.611 129.135 295.041 130.732 296.298 131.357 L 297.973 132.187 L 297.973 138.618 C 297.972 144.053 302.78 148.205 308.102 147.363 L 314.277 146.394 L 315.516 157.08 L 335.175 154.739 L 333.841 143.334 L 333.901 143.334 L 333.183 133.407 C 336.721 133.383 339.577 130.483 339.581 126.911 Z" style="fill: rgb(255, 255, 255);"/>
  <path d="M 314.649 158.19 L 313.405 147.578 L 308.251 148.389 C 302.329 149.322 296.98 144.701 296.982 138.653 L 296.982 132.837 L 295.857 132.282 C 295.01 131.866 294.38 131.103 294.127 130.187 C 293.876 129.251 294.029 128.251 294.549 127.437 L 294.603 127.351 C 296.181 124.813 297.007 121.872 296.982 118.875 L 296.982 116.131 C 296.971 110.427 301.233 105.638 306.853 105.039 L 331.924 102.323 L 333.163 119.421 C 338.884 119.538 342.334 125.859 339.374 130.8 C 338.253 132.671 336.379 133.956 334.243 134.318 L 334.951 144.173 L 336.289 155.614 L 314.649 158.19 Z M 315.144 145.268 L 316.393 155.97 L 334.084 153.865 L 332.757 142.499 L 332.855 142.499 L 332.128 132.422 L 333.187 132.422 C 337.384 132.41 339.994 127.819 337.886 124.158 C 336.908 122.458 335.106 121.416 333.158 121.421 C 332.902 121.423 332.647 121.444 332.394 121.48 L 331.344 121.631 L 330.085 104.534 L 307.052 107.034 C 302.44 107.526 298.942 111.455 298.95 116.135 L 298.95 118.881 C 298.974 122.258 298.041 125.573 296.258 128.432 L 296.209 128.512 C 295.989 128.85 295.923 129.266 296.026 129.657 C 296.124 130.022 296.375 130.328 296.714 130.491 L 298.95 131.592 L 298.95 138.647 C 298.951 143.466 303.211 147.148 307.929 146.409 L 315.144 145.268 Z" style=""/>
  <path d="M 304.316 139.663 C 304.064 139.663 303.812 139.642 303.563 139.598 C 302.606 139.431 301.717 138.986 301.006 138.318 C 300.434 137.798 300.634 136.848 301.366 136.608 C 301.705 136.496 302.079 136.576 302.344 136.818 C 302.775 137.22 303.309 137.492 303.886 137.602 C 305.719 137.907 307.161 136.103 307.176 136.103 C 307.67 135.515 308.608 135.687 308.865 136.412 C 308.975 136.722 308.927 137.065 308.736 137.332 C 308.632 137.448 306.884 139.663 304.316 139.663 Z" style=""/>
  <circle cx="619.19" cy="301.91" r="3.15" transform="matrix(0.495557, 0, 0, 0.50006, 1.530443, -26.442061)" style=""/>
  <path d="M 332.484 130.287 C 330.432 130.287 329.148 128.045 330.175 126.251 C 331.201 124.457 333.766 124.457 334.793 126.251 C 335.027 126.661 335.15 127.124 335.15 127.596 C 335.15 129.082 333.956 130.287 332.484 130.287 Z M 332.484 126.906 C 331.958 126.906 331.628 127.482 331.891 127.941 C 332.154 128.401 332.813 128.401 333.076 127.941 C 333.136 127.836 333.167 127.717 333.167 127.596 C 333.167 127.215 332.862 126.906 332.484 126.906 Z" style=""/>
  <path class="cls-1" d="M 316.526 154.379 L 346.686 152.999 C 351.198 152.746 355.626 154.299 359.007 157.325 C 363.352 161.325 366.751 168.671 362.019 182.022 L 355.358 194.549 L 317.696 189.948 L 311.189 202.721 L 287.551 205.446 C 286.966 205.511 285.158 202.37 284.905 201.975 C 283.023 199.082 281.799 195.805 281.318 192.38 C 280.078 182.618 287.265 174.777 292.829 167.641 C 298.737 160.031 306.587 154.834 316.526 154.379 Z" style="fill: rgb(1, 101, 255);"/>
  <path d="M 330.868 129.037 C 330.388 129.045 329.971 128.706 329.877 128.232 C 329.603 126.862 330.071 125.449 331.106 124.521 C 332.104 123.679 333.443 123.373 334.704 123.696 C 335.44 123.902 335.68 124.835 335.135 125.375 C 334.882 125.627 334.515 125.722 334.173 125.627 C 333.558 125.475 332.909 125.621 332.414 126.021 C 331.911 126.477 331.685 127.167 331.82 127.836 C 331.93 128.378 331.584 128.906 331.047 129.016 C 330.988 129.027 330.929 129.034 330.868 129.037 Z" style=""/>
  <path d="M 306.963 106.034 C 306.963 106.034 306.64 126.181 332.439 120.46 L 331.012 103.429 L 306.963 106.034 Z" style=""/>
  <path d="M 308.736 133.282 C 304.644 133.282 301.303 129.387 301.303 124.591 C 301.303 119.796 304.639 115.9 308.736 115.9 C 312.835 115.9 316.17 119.8 316.17 124.591 C 316.17 129.382 312.835 133.282 308.736 133.282 Z M 308.736 117.901 C 305.734 117.901 303.286 120.9 303.286 124.591 C 303.286 128.282 305.729 131.282 308.736 131.282 C 311.745 131.282 314.188 128.282 314.188 124.591 C 314.188 120.9 311.749 117.901 308.736 117.901 Z" style=""/>
  <path d="M 342.692 238.535 L 304.812 238.535 L 304.812 213.162 L 339.813 213.162 C 342.286 221.374 343.269 229.97 342.712 238.535 L 342.692 238.535 Z" style=""/>
  <path class="cls-7" d="M 247.194 218.173 L 227.678 218.173 C 223.01 218.18 219.64 213.667 220.934 209.141 C 221.773 206.231 224.418 204.232 227.421 204.236 L 247.447 204.236 C 250.337 204.234 252.907 206.09 253.839 208.851 C 255.374 213.435 251.988 218.183 247.194 218.173 Z" style="fill: rgb(243, 234, 214);"/>
  <path class="cls-2" d="M 317.111 189.948 L 310.699 202.721 L 273.765 206.431 C 272.384 206.57 270.993 206.301 269.762 205.655 L 253.77 197.275 C 253.77 197.275 248.185 194.119 240.112 197.52 L 226.514 203.745 C 225.343 204.256 224.625 205.463 224.729 206.746 L 224.729 206.776 C 224.873 207.863 225.937 208.571 226.984 208.276 L 241.381 204.201 L 234.636 210.356 C 233.643 211.254 232.951 212.44 232.654 213.752 C 232.198 215.887 232.747 218.782 238.228 220.103 C 238.228 220.103 240.751 224.378 245.043 222.103 C 245.068 222.103 245.677 222.647 245.726 222.683 C 246.396 223.204 247.113 223.661 247.868 224.048 C 250.229 225.233 252.814 225.895 255.45 225.993 C 257.085 226.073 258.621 225.353 258.835 223.563 L 260.211 223.707 C 264.506 224.151 268.783 224.788 273.041 225.618 L 305.615 231.974 C 314.534 233.249 320.917 231.324 324.174 230.023 C 333.688 226.228 339.853 219.477 344.799 210.902 L 354.214 194.544 L 317.111 189.948 Z" style="fill: rgb(255, 255, 255);"/>
  <path d="M 311.437 233.404 C 309.448 233.4 307.46 233.254 305.491 232.969 L 305.441 232.969 L 272.848 226.588 C 268.646 225.768 264.359 225.133 260.107 224.688 L 259.573 224.633 C 258.968 226.168 257.392 227.083 255.395 226.984 C 252.618 226.877 249.895 226.175 247.407 224.928 C 246.601 224.51 245.832 224.022 245.112 223.467 L 244.919 223.298 L 244.884 223.268 C 241.415 224.733 238.749 222.613 237.604 220.963 C 231.424 219.328 231.231 215.617 231.657 213.526 C 231.999 212.006 232.807 210.631 233.967 209.602 L 237.594 206.291 L 227.217 209.216 C 225.599 209.674 223.951 208.59 223.714 206.911 C 223.531 205.183 224.474 203.535 226.047 202.831 L 239.701 196.595 C 248.15 193.034 254.007 196.249 254.255 196.39 L 270.197 204.751 C 271.264 205.312 272.469 205.545 273.666 205.421 L 310.055 201.765 L 316.537 188.859 L 355.854 193.739 L 345.661 211.412 C 339.971 221.267 333.271 227.479 324.545 230.959 C 320.369 232.603 315.921 233.432 311.437 233.404 Z M 305.774 230.988 C 312.265 231.914 318.336 231.279 323.806 229.098 C 332.201 225.749 338.411 219.983 343.937 210.407 L 352.618 195.354 L 317.696 191.029 L 311.353 203.661 L 273.879 207.425 C 272.307 207.584 270.722 207.277 269.32 206.54 L 253.349 198.165 C 253.11 198.035 248.016 195.284 240.528 198.445 L 226.92 204.656 C 226.145 204.983 225.658 205.769 225.706 206.616 C 225.768 207.109 226.246 207.434 226.722 207.305 L 245.176 202.085 L 235.319 211.086 C 234.468 211.836 233.873 212.837 233.615 213.947 C 233.075 216.472 234.701 218.213 238.452 219.113 L 238.858 219.212 L 239.072 219.577 C 239.285 219.928 241.241 222.973 244.577 221.203 C 245.201 220.873 245.613 221.243 246.237 221.802 L 246.351 221.907 C 246.974 222.381 247.637 222.798 248.333 223.153 C 250.571 224.267 253.015 224.891 255.509 224.983 C 256.158 225.013 257.685 224.933 257.858 223.433 L 257.971 222.432 L 260.326 222.678 C 264.633 223.123 268.978 223.768 273.24 224.603 L 305.774 230.988 Z M 245.504 222.988 Z" style=""/>
  <rect x="217.098" y="382.937" width="45.691" height="5.776" rx="4.02" style=""/>
  <path class="cls-2" d="M 212.346 372.69 L 231.514 369.24 L 259.553 369.24 L 259.553 379.672 C 259.553 381.657 257.957 383.267 255.99 383.267 L 219.081 383.267 L 212.346 372.69 Z" style="fill: rgb(255, 255, 255);"/>
  <path d="M 255.99 384.267 L 218.55 384.267 L 210.706 371.971 L 231.519 368.241 L 260.548 368.241 L 260.548 379.672 C 260.546 382.21 258.506 384.267 255.99 384.267 Z M 219.631 382.266 L 255.99 382.266 C 257.409 382.264 258.559 381.104 258.562 379.672 L 258.562 370.241 L 231.603 370.241 L 213.981 373.411 L 219.631 382.266 Z" style=""/>
  <path d="M 188.569 349.513 L 177.047 341.011 C 169.577 335.515 167.937 324.947 173.385 317.409 L 223.585 247.941 C 231.574 236.882 246.935 234.455 257.893 242.52 C 268.852 250.581 271.258 266.083 263.264 277.139 L 213.868 345.517 C 207.974 353.669 196.649 355.459 188.569 349.513 Z" style=""/>
  <path d="M 308.35 274.094 L 220.637 274.094 L 220.637 256.701 C 220.639 242.767 231.834 231.473 245.642 231.473 L 342.692 231.473 L 342.692 239.439 C 342.692 258.578 327.317 274.094 308.35 274.094 Z" style=""/>
  <path d="M 251.659 371.685 L 237.415 371.685 C 228.17 371.685 220.674 364.124 220.672 354.794 L 220.672 271.959 L 269.78 271.959 L 269.78 353.413 C 269.784 363.512 261.666 371.696 251.659 371.685 Z" style=""/>
  <path class="cls-2" d="M 194.456 349.863 C 193.693 349.86 193.219 349.026 193.603 348.36 C 193.617 348.335 193.632 348.311 193.649 348.288 L 219.843 310.784 C 220.284 310.154 221.234 310.242 221.555 310.941 C 221.703 311.267 221.668 311.646 221.463 311.939 L 195.269 349.443 C 195.081 349.708 194.779 349.864 194.456 349.863 Z" style="fill: rgb(255, 255, 255);"/>
  <path class="cls-2" d="M 254.216 372.5 C 253.668 372.5 253.225 372.053 253.225 371.501 L 253.225 269.898 C 253.229 262.065 259.52 255.715 267.283 255.706 L 305.827 255.706 C 314.26 255.699 321.093 248.803 321.101 240.295 L 321.101 231.473 C 321.101 230.704 321.927 230.223 322.588 230.608 C 322.894 230.786 323.084 231.117 323.084 231.473 L 323.084 240.295 C 323.072 249.907 315.353 257.695 305.827 257.707 L 267.283 257.707 C 260.615 257.715 255.212 263.17 255.206 269.898 L 255.206 371.501 C 255.206 372.053 254.763 372.5 254.216 372.5 Z" style="fill: rgb(255, 255, 255);"/>
  <path d="M 238.219 221.088 C 237.78 221.085 237.396 220.792 237.273 220.367 C 234.973 212.422 243.412 207.511 243.501 207.461 C 244.166 207.076 244.993 207.56 244.991 208.333 C 244.99 208.692 244.801 209.022 244.492 209.201 C 243.201 210.006 242.04 211.007 241.053 212.171 C 239.072 214.582 238.423 217.147 239.195 219.808 C 239.348 220.338 239.047 220.892 238.521 221.047 C 238.423 221.075 238.321 221.088 238.219 221.088 Z" style=""/>
  <path d="M 245.038 223.088 C 244.71 223.087 244.403 222.922 244.219 222.647 C 243.136 221.163 242.753 219.273 243.169 217.477 C 244.161 213.267 249.2 210.401 249.419 210.281 C 250.062 209.867 250.908 210.313 250.94 211.082 C 250.958 211.482 250.737 211.854 250.38 212.026 C 250.301 212.076 245.88 214.607 245.097 217.943 C 244.814 219.191 245.091 220.5 245.856 221.522 C 246.286 222.158 245.875 223.026 245.114 223.085 C 245.089 223.087 245.063 223.088 245.038 223.088 Z" style=""/>
  <path d="M 258.829 224.588 C 258.325 224.591 257.899 224.213 257.838 223.707 C 257.645 222.108 254.419 220.207 252.882 219.553 L 251.515 218.963 L 256.262 214.327 C 256.834 213.817 257.739 214.124 257.889 214.879 C 257.953 215.197 257.86 215.525 257.64 215.762 L 254.978 218.362 C 256.717 219.302 259.522 221.163 259.801 223.467 C 259.865 224.014 259.479 224.51 258.939 224.578 L 258.829 224.588 Z" style=""/>
  <path d="M 224.487 388.717 L 200.883 388.717 C 199.075 388.717 197.608 387.238 197.608 385.412 C 197.61 377.923 203.626 371.853 211.048 371.851 C 218.47 371.851 224.487 377.922 224.487 385.412 L 224.487 388.717 Z" style=""/>
  <path d="M 315.179 124.161 C 314.416 124.203 313.893 123.396 314.239 122.708 C 314.399 122.389 314.716 122.181 315.07 122.161 L 330.699 120.415 C 331.463 120.331 332.03 121.111 331.722 121.821 C 331.579 122.149 331.273 122.376 330.918 122.416 L 315.288 124.156 L 315.179 124.161 Z" style=""/>
  <path d="M 314.396 145.393 L 315.095 151.394 L 325.442 144.508 C 325.686 144.351 325.669 143.985 325.411 143.851 C 325.34 143.814 325.258 143.801 325.18 143.814 L 314.396 145.393 Z" style=""/>
  <path d="M 317.111 190.949 C 316.976 190.95 316.841 190.923 316.715 190.869 C 316.221 190.642 316 190.055 316.22 189.554 L 320.283 180.113 C 320.577 179.402 321.523 179.279 321.985 179.89 C 322.206 180.182 322.251 180.573 322.102 180.907 L 318.033 190.349 C 317.874 190.718 317.51 190.954 317.111 190.949 Z" style=""/>
  <path class="cls-2" d="M 220.953 335.156 C 220.406 335.156 219.963 334.708 219.963 334.156 L 219.963 252.786 C 219.963 252.016 220.789 251.535 221.449 251.92 C 221.756 252.099 221.944 252.429 221.944 252.786 L 221.944 334.156 C 221.944 334.708 221.501 335.156 220.953 335.156 Z" style="fill: rgb(255, 255, 255);"/>
  <rect class="cls-2" x="370.9" y="122.941" width="112.061" height="77.669" rx="22.12" style="fill: rgb(255, 255, 255);"/>
  <path d="M 471.998 201.61 L 381.861 201.61 C 375.263 201.602 369.916 196.207 369.908 189.549 L 369.908 134.002 C 369.916 127.345 375.263 121.949 381.861 121.941 L 471.998 121.941 C 478.597 121.949 483.943 127.345 483.951 134.002 L 483.951 189.549 C 483.943 196.207 478.597 201.602 471.998 201.61 Z M 381.861 123.941 C 376.356 123.946 371.896 128.448 371.891 134.002 L 371.891 189.549 C 371.896 195.103 376.356 199.604 381.861 199.61 L 471.998 199.61 C 477.502 199.602 481.96 195.102 481.969 189.549 L 481.969 134.002 C 481.963 128.448 477.503 123.946 471.998 123.941 L 381.861 123.941 Z" style=""/>
  <circle class="cls-1" cx="868.66" cy="348.77" r="6.75" transform="matrix(0.495557, 0, 0, 0.50006, 1.530443, -26.442061)" style="fill: rgb(255, 193, 235);"/>
  <circle class="cls-1" cx="892.04" cy="348.77" r="6.75" transform="matrix(0.495557, 0, 0, 0.50006, 1.530443, -26.442061)" style="fill: rgb(255, 193, 235);"/>
  <circle class="cls-1" cx="915.43" cy="348.77" r="6.75" transform="matrix(0.495557, 0, 0, 0.50006, 1.530443, -26.442061)" style="fill: rgb(255, 193, 235);"/>
  <circle class="cls-1" cx="938.82" cy="348.77" r="6.75" transform="matrix(0.495557, 0, 0, 0.50006, 1.530443, -26.442061)" style="fill: rgb(255, 193, 235);"/>
  <circle class="cls-4" cx="803.42" cy="368.63" r="13.11" transform="matrix(0.495557, 0, 0, 0.50006, 1.530443, -26.442061)" style="fill: rgb(109, 200, 194);"/>
  <path class="cls-4" d="M 399.097 167.801 C 394.696 167.772 390.589 170.027 388.224 173.772 C 394.644 178.898 403.641 179.153 410.335 174.397 C 408.064 170.293 403.755 167.764 399.097 167.801 Z" style="fill: rgb(109, 200, 194);"/>
  <path d="M 470.115 161.58 L 427.993 161.58 C 427.23 161.58 426.753 160.747 427.134 160.08 C 427.311 159.771 427.638 159.58 427.993 159.58 L 470.115 159.58 C 470.878 159.58 471.355 160.413 470.974 161.08 C 470.796 161.39 470.47 161.58 470.115 161.58 Z" style=""/>
  <path d="M 470.115 169.432 L 427.993 169.432 C 427.23 169.432 426.753 168.597 427.134 167.931 C 427.311 167.622 427.638 167.431 427.993 167.431 L 470.115 167.431 C 470.878 167.431 471.355 168.265 470.974 168.931 C 470.796 169.24 470.47 169.432 470.115 169.432 Z" style=""/>
  <path d="M 454.471 177.293 L 428.013 177.293 C 427.249 177.293 426.773 176.459 427.154 175.792 C 427.331 175.483 427.658 175.293 428.013 175.293 L 454.471 175.293 C 455.233 175.293 455.711 176.126 455.328 176.792 C 455.152 177.101 454.824 177.293 454.471 177.293 Z" style=""/>
  <path d="M 399.28 178.262 C 385.825 178.262 377.416 163.565 384.143 151.807 C 390.871 140.049 407.69 140.049 414.416 151.807 C 415.951 154.488 416.758 157.529 416.758 160.625 C 416.748 170.362 408.928 178.251 399.28 178.262 Z M 399.28 144.994 C 387.351 144.994 379.896 158.024 385.86 168.448 C 391.824 178.874 406.735 178.874 412.701 168.448 C 414.061 166.07 414.777 163.372 414.777 160.625 C 414.765 151.995 407.834 145.002 399.28 144.994 Z" style=""/>
  <rect class="cls-2" x="379.933" y="231.473" width="47.723" height="48.155" rx="15.16" style="fill: rgb(255, 255, 255);"/>
  <path d="M 420.143 280.629 L 387.437 280.629 C 382.741 280.627 378.933 276.788 378.927 272.049 L 378.927 239.045 C 378.933 234.306 382.741 230.466 387.437 230.464 L 420.143 230.464 C 424.839 230.466 428.647 234.306 428.651 239.045 L 428.651 272.049 C 428.647 276.788 424.839 280.627 420.143 280.629 Z M 387.437 232.474 C 383.835 232.476 380.915 235.421 380.91 239.055 L 380.91 272.058 C 380.915 275.692 383.835 278.637 387.437 278.639 L 420.143 278.639 C 423.745 278.637 426.664 275.692 426.67 272.058 L 426.67 239.055 C 426.664 235.421 423.745 232.476 420.143 232.474 L 387.437 232.474 Z" style=""/>
  <path class="cls-4" d="M 396.163 266.948 L 396.163 255.632 C 396.154 255.218 396.373 254.832 396.733 254.632 C 398.298 253.746 402.605 250.801 403.106 244.836 C 403.289 242.68 404.226 241.665 405.212 241.42 C 406.352 241.14 407.526 242.34 407.69 242.501 C 410.371 245.321 407.57 251.786 407.313 252.366 L 410.856 252.271 C 413.773 252.195 416.198 254.523 416.268 257.466 L 416.392 262.587 C 416.465 265.577 414.082 268.039 411.119 268.039 L 397.273 268.039 C 396.671 268.039 396.179 267.555 396.163 266.948 Z" style="fill: rgb(109, 200, 194);"/>
  <rect class="cls-1" x="391.758" y="253.186" width="5.749" height="15.862" rx="2.46" style="fill: rgb(255, 193, 235);"/>
  <circle class="cls-3" cx="232.86" cy="236.32" r="23.99" transform="matrix(0.495557, 0, 0, 0.50006, 1.530443, -26.442061)" style="fill: rgb(255, 187, 69);"/>
  <ellipse class="cls-3" cx="204.04" cy="290.03" rx="23.422" ry="16.921" transform="matrix(0.462629, -0.886552, 0.883102, 0.46924, -247.875706, 163.374529)" style="fill: rgb(255, 187, 69);"/>
  <ellipse class="cls-3" cx="177.29" cy="381.67" rx="31.693" ry="25.536" transform="matrix(0.138785, -0.990323, 0.989975, 0.141268, -312.806188, 287.035649)" style="fill: rgb(255, 187, 69);"/>
  <circle class="cls-3" cx="50.69" cy="314.94" r="22.18" transform="matrix(0.495557, 0, 0, 0.50006, 1.530443, -26.442061)" style="fill: rgb(255, 187, 69);"/>
  <ellipse class="cls-3" cx="65.33" cy="365.84" rx="15.404" ry="20.198" transform="matrix(0.973197, -0.229973, 0.226065, 0.97412, -112.385172, -184.844775)" style="fill: rgb(255, 187, 69);"/>
  <ellipse class="cls-3" cx="86.11" cy="448.97" rx="22.092" ry="27.421" transform="matrix(0.985238, -0.17119, 0.16821, 0.985756, -116.148195, -229.765842)" style="fill: rgb(255, 187, 69);"/>
  <path d="M 63.088 274.524 C 62.587 274.527 62.161 274.151 62.098 273.649 C 56.245 226.798 40.119 186.083 39.956 185.698 C 39.649 184.993 40.214 184.218 40.973 184.302 C 41.346 184.344 41.666 184.596 41.794 184.953 C 41.958 185.358 58.178 226.283 64.094 273.398 C 64.164 273.949 63.778 274.452 63.232 274.519 L 63.088 274.524 Z" style=""/>
  <path d="M 75.061 275.039 C 74.514 275.039 74.07 274.591 74.07 274.039 C 73.946 227.033 80.513 189.344 86.039 165.981 C 92.034 140.643 98.165 126.211 98.214 126.076 C 98.527 125.374 99.476 125.276 99.921 125.901 C 100.123 126.183 100.165 126.55 100.033 126.871 C 99.973 127.012 93.907 141.323 87.951 166.516 C 82.455 189.759 75.929 227.288 76.058 274.029 C 76.058 274.581 75.613 275.029 75.066 275.029 L 75.061 275.039 Z" style=""/>
  <rect class="cls-4" x="42.097" y="274.039" width="52.321" height="122.885" rx="27.57" style="fill: rgb(109, 200, 194);"/>
  <path d="M 44.644 390.358 C 44.247 390.359 43.889 390.12 43.733 389.752 C 43.513 389.251 43.734 388.664 44.227 388.437 C 59.891 381.592 77.619 381.362 93.452 387.798 C 94.15 388.107 94.256 389.063 93.64 389.519 C 93.374 389.718 93.025 389.768 92.713 389.653 C 77.369 383.417 60.19 383.64 45.011 390.272 C 44.895 390.324 44.77 390.353 44.644 390.358 Z" style=""/>
  <path d="M 87.163 294.426 L 50.096 294.426 C 49.332 294.426 48.856 293.593 49.237 292.926 C 49.414 292.617 49.741 292.426 50.096 292.426 L 87.163 292.426 C 87.926 292.426 88.402 293.259 88.021 293.926 C 87.845 294.236 87.517 294.426 87.163 294.426 Z" style=""/>
  <path d="M 77.653 385.132 C 77.106 385.132 76.662 384.685 76.662 384.132 L 76.662 293.722 C 76.662 292.951 77.488 292.47 78.149 292.855 C 78.456 293.033 78.644 293.364 78.644 293.722 L 78.644 384.132 C 78.644 384.685 78.201 385.132 77.653 385.132 Z" style=""/>
  <path d="M 59.581 385.132 C 59.033 385.132 58.589 384.685 58.589 384.132 L 58.589 293.722 C 58.589 292.951 59.414 292.47 60.075 292.855 C 60.383 293.033 60.571 293.364 60.571 293.722 L 60.571 384.132 C 60.571 384.685 60.128 385.132 59.581 385.132 Z" style=""/>
</svg>